# xmcd CD database file
#
# Track frame offsets:
#	150
#	21156
#	55865
#	75648
#	99532
#	122106
#	143603
#	165977
#	186591
#	210767
#	240366
#	256320
#	272569
#	281015
#	303754
#	327308
#	327979
#
# Disc length: 4659 seconds
#
# Revision: 0
# Processed by: cddbd v1.4PL0 Copyright (c) Steve Scherf et al.
# Submitted via: CDex 1.50Beta7
#
DISCID=e2123111
DTITLE=jas_n - finale (the 11 o' clock trainwreck mix)
DYEAR=2003
DGENRE=Blues
TTITLE0=sneaker pimps - low place like home
TTITLE1=blur - tender
TTITLE2=static-x - love dump
TTITLE3=alice in chains - dirt
TTITLE4=deftones - change (acoustic)
TTITLE5=jerry cantrell - angel eyes
TTITLE6=foo fighters - how i miss you
TTITLE7=marilyn manson - spade
TTITLE8=minus - pulse
TTITLE9=pantera - this love
TTITLE10=silverchair - untitled
TTITLE11=jack off jill - love song
TTITLE12=the tv tvs - baby hold on to me
TTITLE13=marilyn manson - the last day on earth
TTITLE14=snuff - emoticon
TTITLE15=(blank)
TTITLE16=dr. dre - bitches ain't shit (bonus track)
EXTD=YEAR: 2003
EXTT0=
EXTT1=
EXTT2=
EXTT3=
EXTT4=
EXTT5=
EXTT6=
EXTT7=
EXTT8=
EXTT9=
EXTT10=
EXTT11=
EXTT12=
EXTT13=
EXTT14=
EXTT15=
EXTT16=
PLAYORDER=
